<svg width="173" height="42" viewBox="0 0 173 42" fill="none" xmlns="http://www.w3.org/2000/svg">
<g id="Frame 150">
<g id="Vector">
<path d="M7.425 3.69094C7.425 5.72939 5.76286 7.38188 3.7125 7.38188C1.66214 7.38188 0 5.72939 0 3.69094C0 1.65249 1.66214 0 3.7125 0C5.76286 0 7.425 1.65249 7.425 3.69094Z" fill="#4255BD"/>
<path d="M26.4 3.69094C26.4 5.72939 24.7379 7.38188 22.6875 7.38188C20.6371 7.38188 18.975 5.72939 18.975 3.69094C18.975 1.65249 20.6371 0 22.6875 0C24.7379 0 26.4 1.65249 26.4 3.69094Z" fill="#354497"/>
<path d="M26.4 9.0223C22.2993 9.0223 18.975 12.3273 18.975 16.4042V29.4072C21.7605 28.4875 24.2851 26.929 26.4 24.8912V9.0223Z" fill="#354497"/>
<path d="M7.425 16.4042C7.425 12.3273 4.10071 9.0223 0 9.0223V25.0484C2.12285 27.0489 4.64649 28.5719 7.425 29.4609V16.4042Z" fill="#4255BD"/>
<path d="M10.5231 40.3899L11.7231 39.5619C12.3231 39.4699 12.7846 40.0679 12.6462 40.3899C11.6261 41.7193 11.1968 41.8607 10.5231 41.724C10.2462 41.6678 9.87207 41.2221 9.73846 40.8959C8.83362 41.166 8.58038 40.8857 8.26154 40.1599C7.2239 40.1829 6.96923 39.8379 6.83077 39.2399C6.27692 39.1939 6 38.9179 6.04615 38.4118L6.92308 37.3998C7.69363 37.426 7.93846 37.6758 7.84615 38.5038L9 37.3998C9.75517 37.412 9.96769 37.597 9.96923 38.2278L8.90769 39.6999L10.3846 38.4118C11.0308 37.9923 11.5846 38.7798 11.4 39.2399L10.5231 40.3899Z" fill="#354497"/>
<path d="M7.425 29.9772V31.072C7.425 31.2347 7.43107 31.3966 7.44305 31.5575C8.49231 31.7875 10.2 31.4195 11.3077 30.9135C12.0854 31.2396 12.2308 31.1895 12.2769 31.3275C11.7231 31.6495 10.9385 31.9612 10.7077 32.2935C10.0277 33.2728 9.8288 33.9246 9.50769 34.7317C9.01955 35.9586 12.0923 36.9398 12.9231 33.9956L13.4769 34.0416C15.5944 35.7431 16.8312 36.9858 18.0923 38.4118C18.2769 38.6206 17.7231 39.1639 17.4462 39.0559C16.3846 38.6418 15.7385 38.1358 15 37.3998C15.3231 38.1818 15.9231 38.7798 17.1231 39.6999C17.2652 39.8089 16.7538 40.3768 16.4769 40.2979C15.5077 40.0219 15.1547 39.7066 14.5385 39.1479C14.6308 39.6079 15.1941 40.1599 15.8769 40.6659C16.0632 40.8039 15.4154 41.3852 15.2308 41.31C14.2154 40.8959 13.8923 40.6199 13.4308 40.1599C13.6154 40.6659 13.9385 40.942 14.4462 41.31C14.6308 41.4438 14.2615 42 13.9846 42C13.4308 42 12.9692 41.862 12.5077 41.31L13.0615 40.8039C13.2 39.9299 12.9692 39.3319 12 39.0559C12.1385 38.4118 11.3077 37.6298 10.5231 37.7678C10.3385 36.8938 9.04615 36.4797 8.26154 37.3998C7.70769 36.7557 6.87692 36.6637 6.27692 37.286C2.54971 35.3812 0 31.5201 0 27.0669V25.719C2.14291 27.6509 4.66298 29.1185 7.425 29.9772Z" fill="#4255BD"/>
<path d="M26.4 25.5686V27.0669C26.4 32.1718 23.0494 36.4986 18.4154 37.9923C16.7652 36.1132 15.701 35.1232 13.6154 33.4436L12.7846 33.3516C12.5077 34.0416 11.8615 35.0997 11.4 35.2377C10.7846 35.4217 10.2462 35.3297 9.96923 35.0997L11.1231 32.7076L13.6154 31.1895C15.3231 31.7415 17.1231 32.0175 18.9569 31.5575C18.9689 31.3966 18.975 31.2347 18.975 31.072V29.9251C21.7434 29.0371 24.2642 27.5358 26.4 25.5686Z" fill="#354497"/>
</g>
<g id="Udhyogsathi">
<path d="M51.5519 21.6371C47.6909 21.6371 45.4014 19.4252 45.4014 15.4284V7.82279H48.5446V15.312C48.5446 17.8925 49.6699 18.9596 51.5713 18.9596C53.4921 18.9596 54.598 17.8925 54.598 15.312V7.82279H57.7024V15.4284C57.7024 19.4252 55.4129 21.6371 51.5519 21.6371Z" fill="black"/>
<path d="M68.2006 7.0079H71.2273V21.4043H68.3364V20.2013C67.5797 21.1132 66.4738 21.5595 65.0768 21.5595C62.1277 21.5595 59.8577 19.4641 59.8577 16.1851C59.8577 12.9061 62.1277 10.8107 65.0768 10.8107C66.3574 10.8107 67.4439 11.2182 68.2006 12.0718V7.0079ZM65.6007 19.076C67.0946 19.076 68.2588 17.9895 68.2588 16.1851C68.2588 14.3807 67.0946 13.2942 65.6007 13.2942C64.0873 13.2942 62.9232 14.3807 62.9232 16.1851C62.9232 17.9895 64.0873 19.076 65.6007 19.076Z" fill="black"/>
<path d="M80.3731 10.8107C82.8372 10.8107 84.6998 12.2465 84.6998 15.4284V21.4043H81.6731V15.8941C81.6731 14.2061 80.897 13.43 79.5582 13.43C78.1031 13.43 77.0554 14.3225 77.0554 16.2433V21.4043H74.0286V7.0079H77.0554V12.0524C77.8702 11.2376 79.0344 10.8107 80.3731 10.8107Z" fill="black"/>
<path d="M94.7043 10.9659H97.6146L92.8999 22.0445C91.891 24.5668 90.4552 25.3235 88.5732 25.3235C87.5061 25.3235 86.342 24.9742 85.6629 24.3728L86.7688 22.2191C87.2345 22.6266 87.8748 22.8788 88.4762 22.8788C89.3105 22.8788 89.7762 22.5102 90.1836 21.5789L90.2224 21.4819L85.7017 10.9659H88.8255L91.7552 18.0477L94.7043 10.9659Z" fill="black"/>
<path d="M103.532 21.5595C100.215 21.5595 97.7894 19.3282 97.7894 16.1851C97.7894 13.042 100.215 10.8107 103.532 10.8107C106.85 10.8107 109.256 13.042 109.256 16.1851C109.256 19.3282 106.85 21.5595 103.532 21.5595ZM103.532 19.076C105.046 19.076 106.19 17.9895 106.19 16.1851C106.19 14.3807 105.046 13.2942 103.532 13.2942C102.019 13.2942 100.855 14.3807 100.855 16.1851C100.855 17.9895 102.019 19.076 103.532 19.076Z" fill="black"/>
<path d="M119.176 10.9659H122.047V19.6581C122.047 23.5385 119.952 25.3235 116.188 25.3235C114.209 25.3235 112.288 24.8384 111.066 23.8877L112.269 21.7147C113.161 22.4326 114.616 22.8982 115.955 22.8982C118.089 22.8982 119.021 21.9281 119.021 20.0461V19.5999C118.225 20.473 117.08 20.8998 115.722 20.8998C112.831 20.8998 110.503 18.9014 110.503 15.8553C110.503 12.8091 112.831 10.8107 115.722 10.8107C117.177 10.8107 118.38 11.2958 119.176 12.3047V10.9659ZM116.324 18.4163C117.915 18.4163 119.059 17.388 119.059 15.8553C119.059 14.3225 117.915 13.2942 116.324 13.2942C114.733 13.2942 113.569 14.3225 113.569 15.8553C113.569 17.388 114.733 18.4163 116.324 18.4163Z" fill="black"/>
<path d="M128.376 21.5595C126.611 21.5595 124.826 21.0744 123.855 20.4342L124.864 18.2611C125.796 18.8626 127.212 19.27 128.493 19.27C129.89 19.27 130.413 18.9014 130.413 18.3193C130.413 16.6119 124.108 18.3581 124.108 14.1867C124.108 12.2077 125.893 10.8107 128.939 10.8107C130.375 10.8107 131.966 11.1405 132.955 11.7226L131.946 13.8762C130.918 13.2942 129.89 13.1002 128.939 13.1002C127.581 13.1002 126.999 13.527 126.999 14.0703C126.999 15.8553 133.304 14.1285 133.304 18.2417C133.304 20.1819 131.5 21.5595 128.376 21.5595Z" fill="black"/>
<path d="M139.382 10.8107C142.564 10.8107 144.407 12.2853 144.407 15.4478V21.4043H141.574V20.1043C141.012 21.055 139.925 21.5595 138.393 21.5595C135.948 21.5595 134.493 20.2013 134.493 18.3969C134.493 16.5537 135.793 15.2732 138.975 15.2732H141.38C141.38 13.9733 140.604 13.2166 138.975 13.2166C137.869 13.2166 136.724 13.5852 135.967 14.1867L134.881 12.0718C136.025 11.257 137.713 10.8107 139.382 10.8107ZM139.149 19.5223C140.158 19.5223 141.031 19.0566 141.38 18.1059V17.0388H139.304C137.888 17.0388 137.442 17.5626 137.442 18.2611C137.442 19.0178 138.082 19.5223 139.149 19.5223Z" fill="black"/>
<path d="M153.064 18.7656L153.879 20.8998C153.258 21.3461 152.346 21.5595 151.415 21.5595C148.951 21.5595 147.515 20.2983 147.515 17.8149V13.527H145.905V11.1988H147.515V8.65708H150.542V11.1988H153.142V13.527H150.542V17.7761C150.542 18.6686 151.027 19.1536 151.842 19.1536C152.288 19.1536 152.734 19.0178 153.064 18.7656Z" fill="black"/>
<path d="M161.923 10.8107C164.387 10.8107 166.249 12.2465 166.249 15.4284V21.4043H163.223V15.8941C163.223 14.2061 162.446 13.43 161.108 13.43C159.653 13.43 158.605 14.3225 158.605 16.2433V21.4043H155.578V7.0079H158.605V12.0524C159.42 11.2376 160.584 10.8107 161.923 10.8107Z" fill="black"/>
<path d="M170.506 9.51077C169.381 9.51077 168.624 8.77349 168.624 7.82279C168.624 6.87208 169.381 6.1348 170.506 6.1348C171.632 6.1348 172.388 6.83328 172.388 7.76458C172.388 8.77349 171.632 9.51077 170.506 9.51077ZM168.993 21.4043V10.9659H172.02V21.4043H168.993Z" fill="black"/>
</g>
<g id="Your Business Companion">
<path d="M50.058 29.9734L47.3417 34.4165V36.7642H46.6335V34.4165L43.9172 29.9734H44.6836L47.0119 33.7859L49.3401 29.9734H50.058Z" fill="black"/>
<path d="M52.5337 36.8127C51.0397 36.8127 49.9338 35.7261 49.9338 34.2128C49.9338 32.6994 51.0397 31.6226 52.5337 31.6226C54.0276 31.6226 55.1238 32.6994 55.1238 34.2128C55.1238 35.7261 54.0276 36.8127 52.5337 36.8127ZM52.5337 36.2015C53.6202 36.2015 54.4254 35.406 54.4254 34.2128C54.4254 33.0196 53.6202 32.2241 52.5337 32.2241C51.4471 32.2241 50.6322 33.0196 50.6322 34.2128C50.6322 35.406 51.4471 36.2015 52.5337 36.2015Z" fill="black"/>
<path d="M60.4396 31.6614H61.1283V36.7642H60.4687V35.8329C60.1097 36.4537 59.45 36.8127 58.6352 36.8127C57.3352 36.8127 56.4815 36.0851 56.4815 34.6202V31.6614H57.1703V34.5523C57.1703 35.6388 57.733 36.1918 58.7031 36.1918C59.7702 36.1918 60.4396 35.503 60.4396 34.3389V31.6614Z" fill="black"/>
<path d="M63.7171 32.6606C64.0372 31.9815 64.6872 31.6226 65.6282 31.6226V32.292C65.57 32.292 65.5118 32.2823 65.4633 32.2823C64.3961 32.2823 63.7462 32.9613 63.7462 34.1643V36.7642H63.0574V31.6614H63.7171V32.6606Z" fill="black"/>
<path d="M73.9137 33.2621C74.7868 33.4561 75.3107 34.0285 75.3107 34.9501C75.3107 36.1045 74.457 36.7642 72.7593 36.7642H69.6355V29.9734H72.5653C74.0786 29.9734 74.9517 30.6137 74.9517 31.7196C74.9517 32.4957 74.5346 33.0099 73.9137 33.2621ZM72.5168 30.5652H70.3534V33.0293H72.5168C73.6033 33.0293 74.2338 32.6121 74.2338 31.7972C74.2338 30.9823 73.6033 30.5652 72.5168 30.5652ZM72.7496 36.1724C73.9428 36.1724 74.5928 35.7844 74.5928 34.8919C74.5928 34.0091 73.9428 33.621 72.7496 33.621H70.3534V36.1724H72.7496Z" fill="black"/>
<path d="M80.7132 31.6614H81.402V36.7642H80.7423V35.8329C80.3834 36.4537 79.7237 36.8127 78.9088 36.8127C77.6089 36.8127 76.7552 36.0851 76.7552 34.6202V31.6614H77.444V34.5523C77.444 35.6388 78.0066 36.1918 78.9767 36.1918C80.0439 36.1918 80.7132 35.503 80.7132 34.3389V31.6614Z" fill="black"/>
<path d="M84.6989 36.8127C83.8549 36.8127 83.04 36.541 82.6229 36.1821L82.9333 35.6388C83.3408 35.959 84.0296 36.2112 84.7474 36.2112C85.7175 36.2112 86.1153 35.8814 86.1153 35.3769C86.1153 34.0479 82.8072 35.0956 82.8072 33.0778C82.8072 32.2435 83.5251 31.6226 84.825 31.6226C85.4847 31.6226 86.2026 31.8069 86.6294 32.098L86.3287 32.6509C85.8825 32.3405 85.3489 32.2144 84.825 32.2144C83.9034 32.2144 83.496 32.5733 83.496 33.0584C83.496 34.4359 86.8041 33.3979 86.8041 35.3575C86.8041 36.2403 86.028 36.8127 84.6989 36.8127Z" fill="black"/>
<path d="M88.4266 30.5458C88.1453 30.5458 87.9222 30.3227 87.9222 30.051C87.9222 29.7891 88.1453 29.566 88.4266 29.566C88.708 29.566 88.9311 29.7794 88.9311 30.0413C88.9311 30.3227 88.7177 30.5458 88.4266 30.5458ZM88.0774 36.7642V31.6614H88.7662V36.7642H88.0774Z" fill="black"/>
<path d="M93.2825 31.6226C94.5243 31.6226 95.378 32.3405 95.378 33.8053V36.7642H94.6892V33.8732C94.6892 32.7964 94.1265 32.2435 93.1564 32.2435C92.0602 32.2435 91.3714 32.9225 91.3714 34.0867V36.7642H90.6827V31.6614H91.3423V32.6024C91.711 31.9815 92.3997 31.6226 93.2825 31.6226Z" fill="black"/>
<path d="M101.72 34.2128C101.72 34.271 101.71 34.3486 101.71 34.4262H97.4415C97.5191 35.4933 98.334 36.2015 99.4496 36.2015C100.07 36.2015 100.623 35.9784 101.011 35.5321L101.4 35.9784C100.944 36.5216 100.235 36.8127 99.4302 36.8127C97.8392 36.8127 96.7527 35.7261 96.7527 34.2128C96.7527 32.6994 97.8101 31.6226 99.2459 31.6226C100.682 31.6226 101.72 32.68 101.72 34.2128ZM99.2459 32.2144C98.2564 32.2144 97.5288 32.9128 97.4415 33.9121H101.06C100.973 32.9128 100.245 32.2144 99.2459 32.2144Z" fill="black"/>
<path d="M104.489 36.8127C103.645 36.8127 102.831 36.541 102.413 36.1821L102.724 35.6388C103.131 35.959 103.82 36.2112 104.538 36.2112C105.508 36.2112 105.906 35.8814 105.906 35.3769C105.906 34.0479 102.598 35.0956 102.598 33.0778C102.598 32.2435 103.316 31.6226 104.616 31.6226C105.275 31.6226 105.993 31.8069 106.42 32.098L106.119 32.6509C105.673 32.3405 105.139 32.2144 104.616 32.2144C103.694 32.2144 103.287 32.5733 103.287 33.0584C103.287 34.4359 106.595 33.3979 106.595 35.3575C106.595 36.2403 105.819 36.8127 104.489 36.8127Z" fill="black"/>
<path d="M109.236 36.8127C108.392 36.8127 107.577 36.541 107.16 36.1821L107.47 35.6388C107.878 35.959 108.566 36.2112 109.284 36.2112C110.254 36.2112 110.652 35.8814 110.652 35.3769C110.652 34.0479 107.344 35.0956 107.344 33.0778C107.344 32.2435 108.062 31.6226 109.362 31.6226C110.022 31.6226 110.739 31.8069 111.166 32.098L110.866 32.6509C110.419 32.3405 109.886 32.2144 109.362 32.2144C108.44 32.2144 108.033 32.5733 108.033 33.0584C108.033 34.4359 111.341 33.3979 111.341 35.3575C111.341 36.2403 110.565 36.8127 109.236 36.8127Z" fill="black"/>
<path d="M118.248 36.8224C116.211 36.8224 114.697 35.3575 114.697 33.3688C114.697 31.3801 116.211 29.9152 118.258 29.9152C119.247 29.9152 120.14 30.2451 120.741 30.9047L120.285 31.3607C119.732 30.798 119.053 30.5555 118.277 30.5555C116.637 30.5555 115.405 31.7584 115.405 33.3688C115.405 34.9792 116.637 36.1821 118.277 36.1821C119.053 36.1821 119.732 35.9396 120.285 35.3672L120.741 35.8232C120.14 36.4828 119.247 36.8224 118.248 36.8224Z" fill="black"/>
<path d="M123.984 36.8127C122.49 36.8127 121.384 35.7261 121.384 34.2128C121.384 32.6994 122.49 31.6226 123.984 31.6226C125.478 31.6226 126.574 32.6994 126.574 34.2128C126.574 35.7261 125.478 36.8127 123.984 36.8127ZM123.984 36.2015C125.071 36.2015 125.876 35.406 125.876 34.2128C125.876 33.0196 125.071 32.2241 123.984 32.2241C122.898 32.2241 122.083 33.0196 122.083 34.2128C122.083 35.406 122.898 36.2015 123.984 36.2015Z" fill="black"/>
<path d="M134.344 31.6226C135.586 31.6226 136.401 32.3405 136.401 33.8053V36.7642H135.712V33.8732C135.712 32.7964 135.169 32.2435 134.247 32.2435C133.2 32.2435 132.54 32.9225 132.54 34.0867V36.7642H131.851V33.8732C131.851 32.7964 131.308 32.2435 130.377 32.2435C129.339 32.2435 128.669 32.9225 128.669 34.0867V36.7642H127.981V31.6614H128.64V32.5927C128.999 31.9815 129.659 31.6226 130.513 31.6226C131.357 31.6226 132.016 31.9815 132.327 32.6994C132.695 32.0397 133.423 31.6226 134.344 31.6226Z" fill="black"/>
<path d="M140.898 31.6226C142.353 31.6226 143.44 32.6703 143.44 34.2128C143.44 35.765 142.353 36.8127 140.898 36.8127C140.083 36.8127 139.385 36.4634 138.958 35.8038V38.6462H138.269V31.6614H138.929V32.6703C139.346 31.9912 140.054 31.6226 140.898 31.6226ZM140.849 36.2015C141.926 36.2015 142.751 35.406 142.751 34.2128C142.751 33.0293 141.926 32.2241 140.849 32.2241C139.763 32.2241 138.948 33.0293 138.948 34.2128C138.948 35.406 139.763 36.2015 140.849 36.2015Z" fill="black"/>
<path d="M146.6 31.6226C147.92 31.6226 148.667 32.2823 148.667 33.6016V36.7642H148.007V35.9687C147.696 36.4925 147.095 36.8127 146.251 36.8127C145.097 36.8127 144.388 36.2112 144.388 35.3284C144.388 34.5426 144.893 33.8829 146.358 33.8829H147.978V33.5725C147.978 32.6994 147.483 32.2241 146.532 32.2241C145.873 32.2241 145.252 32.4569 144.835 32.8255L144.524 32.3114C145.038 31.8748 145.795 31.6226 146.6 31.6226ZM146.358 36.2694C147.134 36.2694 147.706 35.9008 147.978 35.2314V34.3971H146.377C145.388 34.3971 145.068 34.7851 145.068 35.309C145.068 35.9008 145.543 36.2694 146.358 36.2694Z" fill="black"/>
<path d="M153.137 31.6226C154.379 31.6226 155.233 32.3405 155.233 33.8053V36.7642H154.544V33.8732C154.544 32.7964 153.981 32.2435 153.011 32.2435C151.915 32.2435 151.226 32.9225 151.226 34.0867V36.7642H150.537V31.6614H151.197V32.6024C151.566 31.9815 152.254 31.6226 153.137 31.6226Z" fill="black"/>
<path d="M157.452 30.5458C157.171 30.5458 156.947 30.3227 156.947 30.051C156.947 29.7891 157.171 29.566 157.452 29.566C157.733 29.566 157.956 29.7794 157.956 30.0413C157.956 30.3227 157.743 30.5458 157.452 30.5458ZM157.103 36.7642V31.6614H157.791V36.7642H157.103Z" fill="black"/>
<path d="M161.794 36.8127C160.3 36.8127 159.194 35.7261 159.194 34.2128C159.194 32.6994 160.3 31.6226 161.794 31.6226C163.288 31.6226 164.384 32.6994 164.384 34.2128C164.384 35.7261 163.288 36.8127 161.794 36.8127ZM161.794 36.2015C162.88 36.2015 163.685 35.406 163.685 34.2128C163.685 33.0196 162.88 32.2241 161.794 32.2241C160.707 32.2241 159.892 33.0196 159.892 34.2128C159.892 35.406 160.707 36.2015 161.794 36.2015Z" fill="black"/>
<path d="M168.39 31.6226C169.632 31.6226 170.485 32.3405 170.485 33.8053V36.7642H169.797V33.8732C169.797 32.7964 169.234 32.2435 168.264 32.2435C167.168 32.2435 166.479 32.9225 166.479 34.0867V36.7642H165.79V31.6614H166.45V32.6024C166.818 31.9815 167.507 31.6226 168.39 31.6226Z" fill="black"/>
</g>
</g>
</svg>
