<svg width="36" height="36" viewBox="0 0 36 36" fill="none" xmlns="http://www.w3.org/2000/svg">
<g id="Frame">
<path id="Vector" d="M7.87524 9C7.87524 5.06498 11.0652 1.875 15.0003 1.875C18.9352 1.875 22.1253 5.06498 22.1253 9C22.1253 12.935 18.9352 16.125 15.0003 16.125C11.0652 16.125 7.87524 12.935 7.87524 9Z" fill="#FBFCFE"/>
<path id="Vector_2" d="M27.7503 34.1252C27.7503 34.1252 26.7437 33.7892 26.4663 33.6638C25.9145 33.4142 25.175 33.0187 24.4302 32.4335C22.9269 31.2524 21.3753 29.2664 21.3753 26.2052V21.6023H22.5003C23.817 21.6023 24.9846 21.2719 25.8324 20.9327C26.2538 20.7643 26.9039 20.4122 27.1287 20.2897L27.7503 19.8752L28.3716 20.2895C28.5965 20.4121 29.2467 20.7643 29.6681 20.9327C30.516 21.2719 31.6836 21.6023 33.0003 21.6023H34.1253V26.2052C34.1253 29.2664 32.5736 31.2524 31.0703 32.4335C30.3257 33.0187 29.5862 33.4142 29.0343 33.6638C28.757 33.7892 27.7503 34.1252 27.7503 34.1252Z" fill="#FBFCFE"/>
<path id="Vector_3" d="M19.5006 19.0799C18.0889 18.6228 16.5712 18.375 15.0006 18.375C7.89761 18.375 1.87555 23.4433 1.87555 30V31.125H20.8095C20.037 29.82 19.5006 28.1924 19.5006 26.2055V19.0799Z" fill="#FBFCFE"/>
</g>
</svg>
