<svg width="20" height="20" viewBox="0 0 20 20" fill="none" xmlns="http://www.w3.org/2000/svg">
<g id="Frame">
<path id="Vector" fill-rule="evenodd" clip-rule="evenodd" d="M16.2609 1.04163L3.73253 1.04163L1.04166 6.50228V18.3333C1.04166 18.6785 1.32148 18.9583 1.66666 18.9583H10.6576C10.3238 18.7077 10.036 18.4514 9.79966 18.2228C9.34066 17.779 8.97532 17.3415 8.72532 17.0173C8.59907 16.8536 7.65298 15.4166 7.65298 15.4166C7.65298 15.4166 8.59907 13.9796 8.72532 13.816C8.97532 13.4917 9.34066 13.0543 9.79966 12.6105C10.6432 11.7948 12.1423 10.625 14.0494 10.625C15.9564 10.625 17.4556 11.7948 18.2991 12.6105C18.5474 12.8505 18.7682 13.0888 18.9583 13.3082V6.50228L16.2609 1.04163ZM16.8902 6.04163L15.2457 2.70829H10.8202V6.04163H16.8902ZM9.17557 6.04163V2.70829H4.75003L3.10546 6.04163H9.17557Z" fill="#FCFCFD"/>
<path id="Vector_2" fill-rule="evenodd" clip-rule="evenodd" d="M18.9577 15.4167C18.9577 15.4167 18.6745 14.9779 18.6442 14.9343C18.5836 14.8472 18.4957 14.725 18.3833 14.5792C18.1594 14.2889 17.8343 13.9001 17.4299 13.5091C16.6461 12.751 15.4519 11.875 14.0492 11.875C12.6465 11.875 11.4523 12.751 10.6684 13.5091C10.2641 13.9001 9.93891 14.2889 9.71499 14.5792C9.60266 14.725 9.51482 14.8472 9.45416 14.9343C9.42382 14.9779 9.14066 15.4167 9.14066 15.4167C9.14066 15.4167 9.42382 15.8554 9.45416 15.899C9.51482 15.9861 9.60266 16.1083 9.71499 16.2541C9.93891 16.5444 10.2641 16.9333 10.6684 17.3243C11.4523 18.0823 12.6465 18.9583 14.0492 18.9583C15.4519 18.9583 16.6461 18.0823 17.4299 17.3243C17.8343 16.9333 18.1594 16.5444 18.3833 16.2541C18.4957 16.1083 18.5836 15.9861 18.6442 15.899C18.6745 15.8554 18.9577 15.4167 18.9577 15.4167ZM14.042 13.75C13.1257 13.75 12.3828 14.4962 12.3828 15.4167C12.3828 16.3372 13.1257 17.0833 14.042 17.0833H14.0569C14.9732 17.0833 15.7162 16.3372 15.7162 15.4167C15.7162 14.4962 14.9732 13.75 14.0569 13.75H14.042Z" fill="#FCFCFD"/>
</g>
</svg>
