<svg width="36" height="36" viewBox="0 0 36 36" fill="none" xmlns="http://www.w3.org/2000/svg">
<g id="Frame">
<path id="Vector" fill-rule="evenodd" clip-rule="evenodd" d="M15.3305 32.7722C15.9843 33.1463 16.5309 33.4309 16.9168 33.6232L18 34.1248L19.0832 33.6232C19.4691 33.4309 20.0157 33.1463 20.6695 32.7722C21.9744 32.0255 23.7195 30.9149 25.4701 29.4607C28.9338 26.5838 32.625 22.1866 32.625 16.4518C32.625 8.40112 26.0772 1.87476 18 1.87476C9.92283 1.87476 3.375 8.40112 3.375 16.4518C3.375 22.1866 7.06615 26.5838 10.5298 29.4607C12.2805 30.9149 14.0256 32.0255 15.3305 32.7722ZM18 10.4998C14.6863 10.4998 12 13.186 12 16.4998C12 19.8134 14.6863 22.4998 18 22.4998C21.3137 22.4998 24 19.8134 24 16.4998C24 13.186 21.3137 10.4998 18 10.4998Z" fill="#FBFCFE"/>
</g>
</svg>
