<svg width="20" height="20" viewBox="0 0 20 20" fill="none" xmlns="http://www.w3.org/2000/svg">
<g id="Frame">
<path id="Vector" fill-rule="evenodd" clip-rule="evenodd" d="M16.2609 1.04176L3.73254 1.04175L1.04166 6.50241V18.3334C1.04166 18.6786 1.32149 18.9584 1.66666 18.9584H13.3507C14.7234 18.9491 15.8333 17.8334 15.8333 16.4585C15.8333 15.0778 14.7141 13.9585 13.3333 13.9585H11.5952L12.9213 15.2847L11.7428 16.4632L8.40483 13.1252L11.7428 9.78709L12.9213 10.9656L11.5952 12.2918H13.3333C15.6345 12.2918 17.5 14.1573 17.5 16.4585C17.5 17.3964 17.1901 18.262 16.667 18.9584H18.3333C18.6785 18.9584 18.9583 18.6786 18.9583 18.3334V6.50241L16.2609 1.04176ZM16.8902 6.04175L15.2457 2.70842L10.8202 2.70841V6.04175H16.8902ZM9.17558 6.04175V2.70841H4.75004L3.10546 6.04175H9.17558Z" fill="#FCFCFD"/>
</g>
</svg>
