<svg width="20" height="20" viewBox="0 0 20 20" fill="none" xmlns="http://www.w3.org/2000/svg">
<g id="Frame">
<path id="Vector" fill-rule="evenodd" clip-rule="evenodd" d="M9.99999 1.04163C5.05242 1.04163 1.04166 5.05239 1.04166 9.99996C1.04166 14.9474 5.05241 18.9583 9.99999 18.9583C14.9476 18.9583 18.9583 14.9474 18.9583 9.99996C18.9583 5.05239 14.9476 1.04163 9.99999 1.04163ZM17.3296 10.0004C17.3296 14.0483 14.048 17.33 9.99999 17.33V14.1666C12.3012 14.1666 14.1667 12.301 14.1667 9.99996C14.1667 7.69877 12.3012 5.83329 9.99999 5.83329V2.67086C14.048 2.67086 17.3296 5.95239 17.3296 10.0004ZM9.99999 5.83329C7.6988 5.83329 5.83332 7.69877 5.83332 9.99996C5.83332 12.301 7.6988 14.1666 9.99999 14.1666V5.83329Z" fill="#FCFCFD"/>
</g>
</svg>
