<svg width="512" height="512" viewBox="0 0 512 512" fill="none" xmlns="http://www.w3.org/2000/svg">
<path d="M0 118.154C0 52.8993 52.8993 0 118.154 0H393.846C459.101 0 512 52.8993 512 118.154V393.846C512 459.101 459.101 512 393.846 512H118.154C52.8993 512 0 459.101 0 393.846V118.154Z" fill="#4255BD"/>
<path d="M212.923 126.15C212.923 141.442 200.525 153.839 185.231 153.839C169.937 153.839 157.538 141.442 157.538 126.15C157.538 110.858 169.937 98.4615 185.231 98.4615C200.525 98.4615 212.923 110.858 212.923 126.15Z" fill="#FBFCFE"/>
<path d="M354.462 126.15C354.462 141.442 342.063 153.839 326.769 153.839C311.475 153.839 299.077 141.442 299.077 126.15C299.077 110.858 311.475 98.4615 326.769 98.4615C342.063 98.4615 354.462 110.858 354.462 126.15Z" fill="#F0F1FA"/>
<path d="M354.462 166.145C323.873 166.145 299.077 190.939 299.077 221.523V319.07C319.855 312.17 338.686 300.479 354.462 285.191V166.145Z" fill="#F0F1FA"/>
<path d="M212.923 221.523C212.923 190.939 188.127 166.145 157.538 166.145V286.37C173.373 301.378 192.198 312.803 212.923 319.472V221.523Z" fill="#FBFCFE"/>
<path d="M236.032 401.46L244.983 395.248C249.459 394.558 252.902 399.044 251.869 401.46C244.26 411.433 241.057 412.493 236.032 411.468C233.967 411.046 231.176 407.703 230.18 405.256C223.43 407.282 221.541 405.179 219.163 399.734C211.423 399.907 209.523 397.319 208.491 392.832C204.359 392.487 202.294 390.417 202.638 386.621L209.179 379.028C214.927 379.225 216.753 381.099 216.065 387.311L224.671 379.028C230.304 379.12 231.89 380.508 231.901 385.24L223.983 396.283L234.999 386.621C239.819 383.473 243.951 389.381 242.573 392.832L236.032 401.46Z" fill="#F0F1FA"/>
<path d="M212.923 323.345V331.559C212.923 332.779 212.968 333.994 213.058 335.201C220.884 336.926 233.622 334.165 241.885 330.369C247.686 332.816 248.77 332.44 249.115 333.475C244.983 335.891 239.131 338.229 237.409 340.722C232.337 348.068 230.854 352.958 228.458 359.013C224.817 368.217 247.738 375.577 253.934 353.491L258.066 353.836C273.861 366.6 283.086 375.922 292.493 386.621C293.87 388.187 289.739 392.262 287.673 391.452C279.755 388.346 274.935 384.55 269.427 379.028C271.836 384.895 276.312 389.381 285.263 396.283C286.323 397.101 282.509 401.361 280.443 400.77C273.214 398.699 270.581 396.334 265.984 392.142C266.672 395.593 270.874 399.734 275.968 403.531C277.357 404.566 272.525 408.927 271.148 408.362C263.574 405.256 261.164 403.185 257.721 399.734C259.098 403.531 261.508 405.601 265.295 408.362C266.672 409.366 263.918 413.538 261.853 413.538C257.721 413.538 254.279 412.503 250.836 408.362L254.967 404.566C256 398.009 254.279 393.523 247.049 391.452C248.082 386.621 241.885 380.754 236.032 381.789C234.655 375.232 225.016 372.126 219.163 379.028C215.032 374.197 208.835 373.507 204.359 378.175C176.557 363.885 157.538 334.92 157.538 301.513V291.401C173.523 305.894 192.321 316.904 212.923 323.345Z" fill="#FBFCFE"/>
<path d="M354.462 290.273V301.513C354.462 339.809 329.469 372.268 294.903 383.473C282.593 369.377 274.656 361.95 259.098 349.35L252.902 348.66C250.836 353.836 246.016 361.773 242.573 362.809C237.983 364.189 233.967 363.499 231.901 361.773L240.508 343.828L259.098 332.44C271.836 336.581 285.263 338.652 298.942 335.201C299.032 333.994 299.077 332.779 299.077 331.559V322.954C319.727 316.293 338.53 305.03 354.462 290.273Z" fill="#F0F1FA"/>
</svg>
